<?xml version="1.0" encoding="utf-8"?>
<!-- Generator: Adobe Illustrator 16.0.0, SVG Export Plug-In . SVG Version: 6.00 Build 0)  -->
<!DOCTYPE svg PUBLIC "-//W3C//DTD SVG 1.1//EN" "http://www.w3.org/Graphics/SVG/1.1/DTD/svg11.dtd">
<svg version="1.1" id="Capa_1" xmlns="http://www.w3.org/2000/svg" xmlns:xlink="http://www.w3.org/1999/xlink" x="0px" y="0px"
	 width="1477px" height="669px" viewBox="0 0 1477 669" enable-background="new 0 0 1477 669" xml:space="preserve">
<g id="_x23_f8f400ff">
	<path fill="#F8F400" stroke="#F8F400" stroke-width="0.0938" d="M0,0h0.52c0,223,0,446,0,669H0V0z"/>
	<path fill="#F8F400" stroke="#F8F400" stroke-width="0.0938" d="M441.57,77.86c21.52-2.21,44.01,1.01,63.1,11.57
		c19.95,10.82,35.18,28.82,45.43,48.83c17.54,34.6,23.04,74.271,21.021,112.7c-2.13,33.82-10.35,68.18-29.3,96.69
		c-10.601,15.939-25.16,29.49-42.61,37.58c-20.22,9.43-43.4,11.399-65.24,7.72c-20.76-3.521-40.14-14.101-54.55-29.41
		c-20.45-21.59-31.84-50.19-37.689-78.98c-7.41-37.82-6.301-77.47,4.239-114.59c7.96-27.43,22.061-54.21,44.94-72.02
		C405.41,86.56,423.26,79.72,441.57,77.86 M447.49,155.76c-8.65,2.95-13.971,11.23-17.271,19.31c-5.779,14.59-7.45,30.41-8.33,45.97
		c-0.68,16.6-0.439,33.3,1.83,49.78c1.44,9.83,3.521,19.7,7.71,28.76c2.63,5.59,6.24,10.99,11.54,14.37
		c6.59,4.28,15.63,4.37,22.3,0.2c7.58-4.76,11.73-13.21,14.58-21.4c5.61-16.96,6.771-35,7.141-52.75
		c0.1-18.27-0.69-36.75-5.23-54.54c-2.5-9.12-5.97-18.54-13.05-25.14C463.16,155.06,454.72,153.31,447.49,155.76z"/>
	<path fill="#F8F400" stroke="#F8F400" stroke-width="0.0938" d="M86.13,82.62c26.25,0.01,52.5-0.01,78.74,0.01
		c21.78,60.51,43.59,121.01,65.39,181.5c0.42,1.09,0.98,2.11,1.56,3.13c0-3.42-0.42-6.82-0.78-10.21
		c-3.08-29.66-7.66-59.22-8.34-89.08c-0.18-28.439-0.02-56.89-0.07-85.34c26.5-0.01,53,0,79.5,0c0,102.2,0,204.41,0,306.62
		c-26.5,0-53-0.01-79.49,0c-19.65-56.11-39.27-112.24-58.92-168.35c-1.05-2.99-1.98-6.02-3.36-8.87c-0.44,3,0.03,6.03,0.26,9.03
		c1.91,23.95,4.62,47.87,5.01,71.92c-0.01,32.09,0.01,64.18-0.02,96.27c-26.49,0-52.99,0-79.48,0
		C86.13,287.04,86.13,184.83,86.13,82.62z"/>
	<path fill="#F8F400" stroke="#F8F400" stroke-width="0.0938" d="M606.51,389.25c-0.01-102.17-0.02-204.33,0-306.5
		c29.15,0.01,58.311-0.02,87.47,0.01c21.5,0.53,43.37,2.83,63.49,10.88c15.41,6.13,29.37,16.55,38.26,30.7
		c11.07,17.36,14.591,38.37,14.78,58.65c0.33,18.97-4.06,38.58-15.35,54.12c-7.95,11.14-19.37,19.51-32.04,24.55
		c20.56,42.53,41.16,85.05,61.689,127.59c-29.949,0.01-59.899,0-89.859,0c-14.32-39.75-28.63-79.5-42.96-119.24
		c-1.011-2.89-1.94-5.84-3.47-8.5c-0.19,12.63,0.84,25.25,0.939,37.89c0.09,29.95,0.02,59.9,0.03,89.86
		C661.83,389.24,634.17,389.25,606.51,389.25 M689.51,148.64c-0.02,25.18-0.01,50.36,0,75.54c10.22,1.53,21.271-1.57,28.311-9.34
		c9.33-10.04,12.1-24.75,9.97-37.98c-1.25-8.79-5.63-17.47-13.22-22.4C707.25,149.53,698.15,148.31,689.51,148.64z"/>
	<path fill="#F8F400" stroke="#F8F400" stroke-width="0.0938" d="M864.54,82.62c34.47,0.01,68.95,0,103.43,0.01
		c8,54.5,15.62,109.07,23.86,163.53c1.74-6.52,1.82-13.4,2.92-20.06c2.91-25.55,8.32-50.7,12.96-75.96
		c4.25-22.51,8.45-45.03,12.72-67.53c34.08,0.03,68.15,0.02,102.23,0.01c9.92,102.21,19.81,204.42,29.71,306.63
		c-28.771,0-57.55-0.01-86.33,0.01c-2.58-64.07-5.2-128.13-7.68-192.2c-0.21-0.02-0.62-0.05-0.83-0.06
		c-3.98,24.48-7.07,49.11-11.801,73.47c-7.449,39.59-14.89,79.19-22.359,118.78c-22.58,0-45.16,0-67.74,0
		c-9.77-64.4-19.18-128.86-29.14-193.22c-1.23,6.91-0.3,13.979-0.73,20.96c0.391,39.4-2.97,78.69-4.89,118.02
		c-1.021,18.08-1.98,36.17-3.03,54.25c-29.68-0.02-59.37-0.01-89.06-0.01C840.69,287.04,852.62,184.83,864.54,82.62z"/>
	<path fill="#F8F400" stroke="#F8F400" stroke-width="0.0938" d="M1230.67,82.63c33.79-0.01,67.58-0.01,101.37,0
		c21.7,102.21,43.41,204.41,65.1,306.62c-28.66,0-57.31,0-85.96,0c-2.02-13.17-4.069-26.33-6.1-39.5
		c-18.53,0-37.06-0.01-55.601,0.01c-2.31,13.17-4.569,26.35-6.939,39.51c-28.51-0.049-57.02-0.01-85.53-0.02
		C1181.57,287.04,1206.11,184.83,1230.67,82.63 M1279.771,155.57c-2.41,16.39-3.921,32.91-6.49,49.28
		c-4.26,26.59-8.53,53.18-12.78,79.77c11.6,0,23.2,0.02,34.8-0.01c-4.779-39.15-10.35-78.21-13.88-117.5
		C1280.8,163.28,1281.17,159.23,1279.771,155.57z"/>
	<path fill="#F8F400" stroke="#F8F400" stroke-width="0.0938" d="M460.39,423.6c7.83-1.72,16.69-0.27,22.82,5.141
		c5.5,4.729,8.021,12.12,8.03,19.229c0.2,8.311-2.971,17.3-10.3,21.851c-10.16,6.3-25.19,5.199-33.21-4.101
		c-5.671-6.79-6.62-16.45-4.78-24.84C444.78,432.36,451.82,425.31,460.39,423.6z"/>
	<path fill="#F8F400" stroke="#F8F400" stroke-width="0.0938" d="M1053.43,423.6c8.28-1.85,17.761-0.069,23.87,6.11
		c8.36,8.55,8.98,22.81,3.46,33.03c-8.63,14.87-33.91,14.729-42.27-0.33c-3.94-7.391-4.33-16.51-1.61-24.37
		C1039.38,430.74,1045.91,425.17,1053.43,423.6z"/>
	<path fill="#F8F400" stroke="#F8F400" stroke-width="0.0938" d="M319,424.62c14.87,0.01,29.74,0.01,44.62,0
		c0.02,55.05,0,110.09,0.01,165.13c-13.95,0-27.899,0-41.85,0c0.27-5.46,0.68-10.92,0.779-16.38
		c-5.239,6.26-10.739,12.78-18.42,16.109c-8.79,4.171-19.649,3.631-27.899-1.569c-8.42-5.21-13.98-13.95-17.5-23.01
		c-6.71-17.471-6.74-37.221-1.13-54.99c3.22-9.92,8.61-19.7,17.4-25.68c8.16-5.631,19.28-6.74,28.28-2.5
		c6.65,2.829,11.99,7.949,16.18,13.729c0.4,0.21,1.19,0.62,1.59,0.83c-0.59-11.44-2.329-22.82-2.06-34.29
		C319,449.54,318.99,437.08,319,424.62 M306.35,520.59c-3.96,1.05-6.63,4.681-7.79,8.45c-1.81,6.11-1.209,13.4,2.94,18.46
		c3.13,3.85,9.41,4.63,13.17,1.28c6.8-6.01,7.99-17.53,2.12-24.58C314.36,521.15,310.18,519.41,306.35,520.59z"/>
	<path fill="#F8F400" stroke="#F8F400" stroke-width="0.0938" d="M1348.63,424.63c14.87-0.01,29.74,0,44.62,0
		c-0.04,55.061,0.08,110.13-0.06,165.2c-14.86-0.2-29.721,0-44.58-0.101C1348.64,534.69,1348.62,479.66,1348.63,424.63z"/>
	<path fill="#F8F400" stroke="#F8F400" stroke-width="0.0938" d="M89.49,436.38c29.3-0.01,58.59-0.02,87.89,0.01
		c-0.01,14.03-0.01,28.07,0,42.101c-13.33,0.02-26.67,0.01-40,0.01c-0.01,4.79,0,9.58-0.01,14.37c12.17,0,24.33,0,36.5,0
		c0,13.29,0.01,26.59,0,39.89c-12.16-0.02-24.31,0-36.47-0.02c-0.05,4.96-0.02,9.92-0.03,14.88c13.8,0.01,27.59-0.01,41.39,0.01
		c-0.02,14.04,0,28.08-0.01,42.12c-29.76-0.021-59.52,0.04-89.27-0.03C89.52,538.61,89.5,487.49,89.49,436.38z"/>
	<path fill="#F8F400" stroke="#F8F400" stroke-width="0.0938" d="M575.25,447.01c15.04-0.02,30.08-0.01,45.12-0.01
		c0.05,12.09-0.1,24.18,0.07,36.27c4.93-0.39,9.869-0.6,14.81-0.869c-0.01,13.79,0,27.59,0,41.39c-4.96-0.37-9.92-0.68-14.87-1.04
		c-0.01,22.33,0,44.67-0.01,67.01c-15.04-0.02-30.08,0-45.12-0.01c0-22.34,0-44.68,0-67.01c-3.63,0.35-7.26,0.68-10.89,1.01
		c0.04-13.8-0.021-27.61,0.029-41.42c3.61,0.27,7.24,0.53,10.86,0.83C575.25,471.11,575.25,459.06,575.25,447.01z"/>
	<path fill="#F8F400" stroke="#F8F400" stroke-width="0.0938" d="M748.53,479.77c15.279-2.1,31.72,0.921,44.17,10.36
		c10.189,7.61,16.88,19.3,19.35,31.69c2.86,14.56,1.96,30.46-5.43,43.6c-6.6,12.021-18.43,20.72-31.54,24.42
		c-16.59,4.75-35.34,2.561-49.87-6.95c-12.36-7.91-20.57-21.51-22.56-35.979c-1.971-14.97,0.1-31.01,8.3-43.94
		C719.07,489.97,733.47,481.69,748.53,479.77 M754.49,520.74c-9.12,3.38-11.42,15.91-7.13,23.85c2.8,5.76,10.6,8.55,16.14,4.94
		c7.76-4.95,8.479-16.48,3.8-23.79C764.729,521.51,759.29,519.09,754.49,520.74z"/>
	<path fill="#F8F400" stroke="#F8F400" stroke-width="0.0938" d="M942.26,484.23c6.13-4.801,14.271-5.2,21.73-5.131
		c0.02,17.881,0.01,35.761,0.01,53.63c-3.4-2.319-6.78-5.05-10.95-5.739c-5.43-0.91-11.57,0.54-15.26,4.819
		c-3.85,4.42-4.92,10.511-4.93,16.2c0.02,13.91,0.02,27.83,0.01,41.74c-14.88,0-29.75,0-44.62,0c0.021-36.05-0.03-72.09,0.03-108.14
		c14.85,0.02,29.699,0.029,44.55,0c-0.271,5.01-0.86,10.01-0.9,15.029C935.229,492.4,937.76,487.41,942.26,484.23z"/>
	<path fill="#F8F400" stroke="#F8F400" stroke-width="0.0938" d="M1178.69,486.67c11.02-9.61,29.069-10.26,40.319-0.7
		c3.16,2.5,5.28,5.99,7.95,8.971c-0.25-4.46-0.87-8.891-1.31-13.32c14.569,0.01,29.149,0,43.72,0.01
		c0.01,36.03-0.01,72.061,0.02,108.09c-14.59,0.051-29.17,0.04-43.75,0.01c0.471-4.869,1.04-9.739,1.34-14.619
		c-4.35,4.33-8.029,9.439-13.31,12.72c-9.7,6.36-23.2,5.76-32.61-0.88c-9.659-6.76-15.43-17.73-18.67-28.811
		c-4.479-15.479-4.06-32.29,1.021-47.569C1166.45,501.54,1171.31,492.86,1178.69,486.67 M1210.47,521.63
		c-8.04,4.91-8.439,16.69-4.27,24.3c3.41,6.341,13.52,6.66,17.529,0.771c3.75-5.53,4.33-13.16,1.791-19.3
		C1223.26,521.72,1215.96,518.62,1210.47,521.63z"/>
	<path fill="#F8F400" stroke="#F8F400" stroke-width="0.0938" d="M444.37,589.75c0.01-36.05-0.01-72.09,0.01-108.13
		c14.88,0.02,29.75-0.01,44.63,0.01c-0.02,36.04,0,72.08-0.01,108.12C474.12,589.75,459.25,589.75,444.37,589.75z"/>
	<path fill="#F8F400" stroke="#F8F400" stroke-width="0.0938" d="M1037.37,589.74c0.01-36.04-0.021-72.08,0.02-108.13
		c14.87,0.029,29.74,0,44.62,0.02c-0.02,36.04,0,72.08-0.01,108.12C1067.12,589.74,1052.25,589.76,1037.37,589.74z"/>
</g>
<g id="_x23_000000ff">
	<path stroke="#000000" stroke-width="0.0938" d="M0.52,0H1477v669H0.52C0.52,446,0.52,223,0.52,0 M441.57,77.86
		c-18.311,1.86-36.16,8.7-50.66,20.09c-22.88,17.81-36.98,44.59-44.94,72.02c-10.54,37.12-11.649,76.771-4.239,114.59
		c5.85,28.79,17.239,57.39,37.689,78.98c14.41,15.31,33.79,25.89,54.55,29.41c21.84,3.68,45.021,1.71,65.24-7.72
		c17.45-8.09,32.01-21.641,42.61-37.58c18.95-28.51,27.17-62.87,29.3-96.69c2.02-38.43-3.48-78.1-21.021-112.7
		c-10.25-20.01-25.479-38.01-45.43-48.83C485.58,78.87,463.09,75.65,441.57,77.86 M86.13,82.62c0,102.21,0,204.42,0,306.63
		c26.49,0,52.99,0,79.48,0c0.03-32.09,0.01-64.18,0.02-96.27c-0.39-24.05-3.1-47.97-5.01-71.92c-0.23-3-0.7-6.03-0.26-9.03
		c1.38,2.85,2.31,5.88,3.36,8.87c19.65,56.11,39.27,112.24,58.92,168.35c26.49-0.01,52.99,0,79.49,0c0-102.21,0-204.42,0-306.62
		c-26.5,0-53-0.01-79.5,0c0.05,28.45-0.11,56.9,0.07,85.34c0.68,29.86,5.26,59.42,8.34,89.08c0.36,3.39,0.78,6.79,0.78,10.21
		c-0.58-1.02-1.14-2.04-1.56-3.13c-21.8-60.49-43.61-120.99-65.39-181.5C138.63,82.61,112.38,82.63,86.13,82.62 M606.51,389.25
		c27.66,0,55.32-0.01,82.98,0.01c-0.011-29.96,0.06-59.91-0.03-89.86c-0.1-12.64-1.13-25.26-0.939-37.89
		c1.529,2.66,2.459,5.61,3.47,8.5c14.33,39.74,28.64,79.49,42.96,119.24c29.96,0,59.91,0.01,89.859,0
		c-20.529-42.54-41.13-85.06-61.689-127.59c12.67-5.04,24.09-13.41,32.04-24.55c11.29-15.54,15.68-35.15,15.35-54.12
		c-0.189-20.28-3.71-41.29-14.78-58.65c-8.89-14.15-22.85-24.57-38.26-30.7c-20.12-8.05-41.99-10.35-63.49-10.88
		c-29.159-0.03-58.319,0-87.47-0.01C606.49,184.92,606.5,287.08,606.51,389.25 M864.54,82.62
		c-11.92,102.21-23.85,204.42-35.76,306.63c29.689,0,59.38-0.01,89.06,0.01c1.05-18.08,2.01-36.17,3.03-54.25
		c1.92-39.33,5.28-78.62,4.89-118.02c0.431-6.98-0.5-14.05,0.73-20.96c9.96,64.36,19.37,128.82,29.14,193.22
		c22.58,0,45.16,0,67.74,0c7.47-39.59,14.91-79.19,22.359-118.78c4.73-24.36,7.82-48.99,11.801-73.47c0.21,0.01,0.62,0.04,0.83,0.06
		c2.479,64.07,5.1,128.13,7.68,192.2c28.78-0.02,57.56-0.01,86.33-0.01c-9.9-102.21-19.79-204.42-29.71-306.63
		c-34.08,0.01-68.15,0.02-102.23-0.01c-4.27,22.5-8.47,45.02-12.72,67.53c-4.64,25.26-10.05,50.41-12.96,75.96
		c-1.1,6.66-1.18,13.54-2.92,20.06c-8.24-54.46-15.86-109.03-23.86-163.53C933.49,82.62,899.01,82.63,864.54,82.62 M1230.67,82.63
		c-24.56,102.2-49.1,204.41-73.66,306.62c28.511,0.01,57.021-0.029,85.53,0.02c2.37-13.16,4.63-26.34,6.939-39.51
		c18.541-0.02,37.07-0.01,55.601-0.01c2.03,13.17,4.08,26.33,6.1,39.5c28.65,0,57.3,0,85.96,0
		c-21.689-102.21-43.399-204.41-65.1-306.62C1298.25,82.62,1264.46,82.62,1230.67,82.63 M460.39,423.6
		c-8.569,1.71-15.609,8.761-17.439,17.28c-1.84,8.39-0.891,18.05,4.78,24.84c8.02,9.3,23.05,10.4,33.21,4.101
		c7.329-4.551,10.5-13.54,10.3-21.851c-0.01-7.109-2.53-14.5-8.03-19.229C477.08,423.33,468.22,421.88,460.39,423.6 M1053.43,423.6
		c-7.52,1.57-14.05,7.141-16.55,14.44c-2.72,7.86-2.33,16.979,1.61,24.37c8.359,15.06,33.64,15.2,42.27,0.33
		c5.521-10.221,4.9-24.48-3.46-33.03C1071.19,423.53,1061.71,421.75,1053.43,423.6 M319,424.62c-0.01,12.46,0,24.92,0,37.38
		c-0.27,11.47,1.47,22.85,2.06,34.29c-0.399-0.21-1.189-0.62-1.59-0.83c-4.189-5.78-9.529-10.9-16.18-13.729
		c-9-4.24-20.12-3.131-28.28,2.5c-8.79,5.979-14.18,15.76-17.4,25.68c-5.61,17.77-5.58,37.52,1.13,54.99
		c3.52,9.06,9.08,17.8,17.5,23.01c8.25,5.2,19.11,5.74,27.899,1.569c7.681-3.329,13.181-9.85,18.42-16.109
		c-0.1,5.46-0.51,10.92-0.779,16.38c13.95,0,27.899,0,41.85,0c-0.01-55.04,0.01-110.08-0.01-165.13
		C348.74,424.63,333.87,424.63,319,424.62 M1348.63,424.63c-0.01,55.03,0.01,110.061-0.02,165.1c14.859,0.101,29.72-0.1,44.58,0.101
		c0.14-55.07,0.02-110.14,0.06-165.2C1378.37,424.63,1363.5,424.62,1348.63,424.63 M89.49,436.38
		c0.01,51.11,0.03,102.23-0.01,153.34c29.75,0.07,59.51,0.01,89.27,0.03c0.01-14.04-0.01-28.08,0.01-42.12
		c-13.8-0.02-27.59,0-41.39-0.01c0.01-4.96-0.02-9.92,0.03-14.88c12.16,0.02,24.31,0,36.47,0.02c0.01-13.3,0-26.6,0-39.89
		c-12.17,0-24.33,0-36.5,0c0.01-4.79,0-9.58,0.01-14.37c13.33,0,26.67,0.01,40-0.01c-0.01-14.03-0.01-28.07,0-42.101
		C148.08,436.36,118.79,436.37,89.49,436.38 M575.25,447.01c0,12.05,0,24.101,0,36.15c-3.62-0.3-7.25-0.561-10.86-0.83
		c-0.05,13.81,0.011,27.62-0.029,41.42c3.63-0.33,7.26-0.66,10.89-1.01c0,22.33,0,44.67,0,67.01c15.04,0.01,30.08-0.01,45.12,0.01
		c0.01-22.34,0-44.68,0.01-67.01c4.95,0.36,9.91,0.67,14.87,1.04c0-13.8-0.01-27.6,0-41.39c-4.94,0.27-9.88,0.479-14.81,0.869
		c-0.17-12.09-0.021-24.18-0.07-36.27C605.33,447,590.29,446.99,575.25,447.01 M748.53,479.77c-15.061,1.921-29.46,10.2-37.58,23.2
		c-8.2,12.931-10.271,28.971-8.3,43.94c1.989,14.47,10.199,28.069,22.56,35.979c14.53,9.511,33.28,11.7,49.87,6.95
		c13.11-3.7,24.94-12.399,31.54-24.42c7.39-13.14,8.29-29.04,5.43-43.6c-2.47-12.391-9.16-24.08-19.35-31.69
		C780.25,480.69,763.81,477.67,748.53,479.77 M942.26,484.23c-4.5,3.18-7.03,8.17-10.33,12.409c0.04-5.02,0.63-10.02,0.9-15.029
		c-14.851,0.029-29.7,0.02-44.55,0c-0.061,36.05-0.01,72.09-0.03,108.14c14.87,0,29.74,0,44.62,0c0.01-13.91,0.01-27.83-0.01-41.74
		c0.01-5.689,1.08-11.78,4.93-16.2c3.689-4.279,9.83-5.729,15.26-4.819c4.17,0.689,7.55,3.42,10.95,5.739
		c0-17.869,0.01-35.749-0.01-53.63C956.53,479.03,948.39,479.43,942.26,484.23 M1178.69,486.67c-7.381,6.19-12.24,14.87-15.28,23.9
		c-5.08,15.279-5.5,32.09-1.021,47.569c3.24,11.08,9.011,22.051,18.67,28.811c9.41,6.64,22.91,7.24,32.61,0.88
		c5.28-3.28,8.96-8.39,13.31-12.72c-0.3,4.88-0.869,9.75-1.34,14.619c14.58,0.03,29.16,0.041,43.75-0.01
		c-0.029-36.029-0.01-72.06-0.02-108.09c-14.57-0.01-29.15,0-43.72-0.01c0.439,4.43,1.06,8.86,1.31,13.32
		c-2.67-2.98-4.79-6.471-7.95-8.971C1207.76,476.41,1189.71,477.06,1178.69,486.67 M444.37,589.75c14.88,0,29.75,0,44.63,0
		c0.01-36.04-0.01-72.08,0.01-108.12c-14.88-0.02-29.75,0.01-44.63-0.01C444.36,517.66,444.38,553.7,444.37,589.75 M1037.37,589.74
		c14.88,0.02,29.75,0,44.63,0.01c0.01-36.04-0.01-72.08,0.01-108.12c-14.88-0.02-29.75,0.01-44.62-0.02
		C1037.35,517.66,1037.38,553.7,1037.37,589.74z"/>
	<path stroke="#000000" stroke-width="0.0938" d="M689.51,148.64c8.641-0.33,17.74,0.89,25.061,5.82
		c7.59,4.93,11.97,13.61,13.22,22.4c2.13,13.23-0.64,27.94-9.97,37.98c-7.04,7.77-18.091,10.87-28.311,9.34
		C689.5,199,689.49,173.82,689.51,148.64z"/>
	<path stroke="#000000" stroke-width="0.0938" d="M447.49,155.76c7.229-2.45,15.67-0.7,21.22,4.56c7.08,6.6,10.55,16.02,13.05,25.14
		c4.54,17.79,5.33,36.27,5.23,54.54c-0.37,17.75-1.53,35.79-7.141,52.75c-2.85,8.19-7,16.64-14.58,21.4
		c-6.67,4.17-15.71,4.08-22.3-0.2c-5.3-3.38-8.91-8.78-11.54-14.37c-4.189-9.06-6.27-18.93-7.71-28.76
		c-2.27-16.48-2.51-33.18-1.83-49.78c0.88-15.56,2.551-31.38,8.33-45.97C433.52,166.99,438.84,158.71,447.49,155.76z"/>
	<path stroke="#000000" stroke-width="0.0938" d="M1279.771,155.57c1.399,3.66,1.029,7.71,1.649,11.54
		c3.53,39.29,9.101,78.35,13.88,117.5c-11.6,0.03-23.2,0.01-34.8,0.01c4.25-26.59,8.521-53.18,12.78-79.77
		C1275.85,188.48,1277.36,171.96,1279.771,155.57z"/>
	<path stroke="#000000" stroke-width="0.0938" d="M306.35,520.59c3.83-1.18,8.011,0.561,10.44,3.61c5.87,7.05,4.68,18.57-2.12,24.58
		c-3.76,3.35-10.04,2.569-13.17-1.28c-4.15-5.06-4.75-12.35-2.94-18.46C299.72,525.271,302.39,521.64,306.35,520.59z"/>
	<path stroke="#000000" stroke-width="0.0938" d="M754.49,520.74c4.8-1.65,10.239,0.77,12.81,5c4.68,7.31,3.96,18.84-3.8,23.79
		c-5.54,3.609-13.34,0.819-16.14-4.94C743.07,536.65,745.37,524.12,754.49,520.74z"/>
	<path stroke="#000000" stroke-width="0.0938" d="M1210.47,521.63c5.49-3.01,12.79,0.09,15.051,5.771
		c2.539,6.14,1.959,13.77-1.791,19.3c-4.01,5.89-14.119,5.57-17.529-0.771C1202.03,538.32,1202.43,526.54,1210.47,521.63z"/>
</g>
</svg>
